<?xml version="1.0" ?><svg id="Layer_1" style="enable-background:new 0 0 512 512;" version="1.1" viewBox="0 0 512 512" xml:space="preserve" xmlns="http://www.w3.org/2000/svg" xmlns:xlink="http://www.w3.org/1999/xlink"><style type="text/css">
	.st0{fill:#010101;}
</style><path class="st0" d="M256,75.9c-99.4,0-180.1,80.6-180.1,180.1s80.6,180,180.1,180c99.4,0,180.1-80.6,180.1-180  S355.4,75.9,256,75.9z M234.6,255.2c0,5-1.5,9.8-3.8,13.9l58.4,45.5c4.6-3.3,10.1-5.1,16.2-5.1c15.5,0,28,12.5,28,28  c0,15.5-12.5,28.1-28,28.1c-15.5,0-28.1-12.6-28.1-28.1c0-4.3,1-8.3,2.8-12l-59.4-46.3c-4.1,2.5-9,4-14.2,4c-15.5,0-28-12.5-28-28  c0-15.5,12.5-28.1,28-28.1c5.4,0,10.3,1.6,14.6,4.2l58.8-45c-1.6-3.6-2.6-7.5-2.6-11.7c0-15.5,12.6-28,28.1-28c15.5,0,28,12.5,28,28  c0,15.5-12.5,28-28,28c-6.1,0-11.8-2-16.4-5.4l-58,44.4C233.3,245.6,234.6,250.2,234.6,255.2z" id="XMLID_979_"/></svg>